Coordinates
version=1
nRows=12
nColumns=34
inDegrees=yes

Units are S.I. units (second, meters, Newtons, ...)
If the header above contains a line with 'inDegrees', this indicates whether rotational values are in degrees (yes) or radians (no).

endheader
time	pelvis_tilt	pelvis_list	pelvis_rotation	pelvis_tx	pelvis_ty	pelvis_tz	hip_flexion_r	hip_adduction_r	hip_rotation_r	knee_angle_r	ankle_angle_r	subtalar_angle_r	mtp_angle_r	hip_flexion_l	hip_adduction_l	hip_rotation_l	knee_angle_l	ankle_angle_l	subtalar_angle_l	mtp_angle_l	lumbar_extension	lumbar_bending	lumbar_rotation	arm_flex_r	arm_add_r	arm_rot_r	elbow_flex_r	pro_sup_r	arm_flex_l	arm_add_l	arm_rot_l	elbow_flex_l	pro_sup_l
      1.85000000	     -1.90885539	      2.57237784	     -8.71161120	     -0.07123887	      1.19971455	     -0.08267635	     -3.27823282	      0.31280511	      0.22139577	      0.00000000	      6.08491604	     -0.30975365	      0.00000000	     -3.24034090	      4.22353916	     -4.55462727	      0.00000000	      1.68847640	      1.42809263	      0.00000000	      1.14603712	     -0.70121222	     -3.02498371	      2.82371738	     -6.08526212	     10.59357821	     21.17947428	     68.36967426	     -2.82517682	     -9.54825068	     13.20537577	     25.93450245	     64.21812480
      1.86666670	     -1.96718209	      2.60312089	     -8.81897490	     -0.07172559	      1.19966880	     -0.08238477	     -3.14806599	      0.27001398	      0.13494172	      0.00000000	      6.05770681	     -0.36208021	      0.00000000	     -3.09445678	      4.25252363	     -4.55375630	      0.00000000	      1.75545267	      1.36230270	      0.00000000	      0.95924131	     -0.68537877	     -2.87948743	      3.17640360	     -6.21885396	     10.58136400	     21.25886256	     68.37234524	     -2.75583849	     -9.69254538	     13.27505079	     25.94166520	     64.26483610
      1.88333330	     -1.95841348	      2.60509546	     -8.82060207	     -0.07122864	      1.20074575	     -0.08230365	     -3.16169547	      0.26321708	      0.13383417	      0.00000000	      6.05405758	     -0.36244795	      0.00000000	     -3.06351583	      4.24459869	     -4.55296217	      0.00000000	      1.75630206	      1.36080490	      0.00000000	      0.95523449	     -0.68609438	     -2.87369957	      3.18663188	     -6.21933408	     10.58167587	     21.26166094	     68.37255650	     -2.75420664	     -9.69483654	     13.27799903	     25.94239486	     64.26662744
      1.90000000	     -1.97815353	      2.63117709	     -8.80139423	     -0.07166410	      1.19714126	     -0.08281054	     -3.11708032	      0.23250661	      0.11396811	      0.00000000	      6.00515071	     -0.37356288	      0.00000000	     -2.99157153	      4.27487348	     -4.51426326	      0.00000000	      1.77352687	      1.34397357	      0.00000000	      0.87161443	     -0.68649031	     -2.75754107	      3.43335215	     -6.25948361	     10.58061653	     21.32592934	     68.37546204	     -2.69485640	     -9.77991575	     13.31693561	     25.95634349	     64.29505980
      1.91666670	     -1.98533422	      2.62095232	     -8.81426699	     -0.07113266	      1.19465329	     -0.08379620	     -3.11875948	      0.22555264	      0.11181991	      0.00000000	      6.00214545	     -0.37496183	      0.00000000	     -2.99764052	      4.27837734	     -4.51377713	      0.00000000	      1.77354700	      1.34218499	      0.00000000	      0.86561993	     -0.69075189	     -2.76104429	      3.43748645	     -6.26025462	     10.58094397	     21.32703801	     68.37561566	     -2.68409478	     -9.78472940	     13.31898156	     25.95914122	     64.29673283
      1.93333330	     -2.00925064	      2.62248735	     -8.81843219	     -0.06946729	      1.19884290	     -0.08307956	     -3.11718489	      0.21013594	      0.11041234	      0.00000000	      5.99906411	     -0.37661081	      0.00000000	     -2.99964033	      4.27544271	     -4.51256880	      0.00000000	      1.77615810	      1.33831493	      0.00000000	      0.85955417	     -0.69129354	     -2.76252410	      3.45118843	     -6.26610118	     10.58049887	     21.33081757	     68.37574366	     -2.66953223	     -9.79242750	     13.32109213	     25.96303293	     64.29879769
      1.95000000	     -1.86941933	      2.68003414	     -8.83739514	     -0.06953276	      1.20000139	     -0.08290447	     -3.22883691	      0.11109773	      0.22279578	      0.00000000	      5.72959180	     -0.47873872	      0.00000000	     -3.14614857	      4.37321725	     -4.38820717	      0.00000000	      1.86881608	      0.98361946	      0.00000000	      0.32513753	     -0.82194392	     -2.71753696	      3.73749792	     -6.26275176	     10.65509713	     21.49539789	     68.40024694	     -2.39761021	    -10.03994940	     13.71040761	     26.10552574	     64.53847876
      1.96666670	     -1.88533284	      2.68118013	     -8.82717761	     -0.07012181	      1.19816314	     -0.08246186	     -3.23552700	      0.11064311	      0.22586909	      0.00000000	      5.73049751	     -0.47902297	      0.00000000	     -3.16899356	      4.37078394	     -4.38838200	      0.00877436	      1.86664184	      0.98226211	      0.00000000	      0.32944561	     -0.81963424	     -2.71667288	      3.74113248	     -6.26806337	     10.65481006	     21.49661307	     68.40029601	     -2.39546522	    -10.04415802	     13.71247818	     26.10651582	     64.54012565
      1.98333330	     -1.89334265	      2.68447289	     -8.82678089	     -0.07023539	      1.19937651	     -0.08258516	     -3.23840950	      0.11349181	      0.22662134	      0.00000000	      5.73095526	     -0.47908119	      0.00000000	     -3.17039377	      4.37114613	     -4.38812926	      0.00895419	      1.86668857	      0.98199560	      0.00000000	      0.33032129	     -0.81951721	     -2.71601852	      3.74248979	     -6.26861051	     10.65478232	     21.49713394	     68.40031301	     -2.39519877	    -10.04560621	     13.71268592	     26.10660052	     64.54036928
      2.00000000	     -1.88901963	      2.67114875	     -8.72300822	     -0.06946446	      1.19480558	     -0.08366484	     -3.25853577	      0.12556872	      0.27606554	      0.00000000	      5.74894880	     -0.47386110	      0.00000000	     -3.16333720	      4.37934956	     -4.37763165	      0.00000000	      1.87076437	      0.97076372	      0.00000000	      0.34602429	     -0.80697772	     -2.67530582	      3.85317164	     -6.30705070	     10.65118433	     21.53101510	     68.40089066	     -2.35579989	    -10.10861399	     13.72194393	     26.11609958	     64.55186194
      2.01666670	     -1.89713247	      2.66214683	     -8.72361936	     -0.06781372	      1.19380929	     -0.08322687	     -3.25210867	      0.12025354	      0.27823272	      0.00000000	      5.75291423	     -0.47593108	      0.00000000	     -3.17473469	      4.38264690	     -4.37606372	      0.01573192	      1.87140494	      0.96871513	      0.00000000	      0.34283687	     -0.80939613	     -2.67821101	      3.86127399	     -6.31071020	     10.65093116	     21.53371155	     68.40093408	     -2.34455366	    -10.11271959	     13.72348629	     26.11942836	     64.55337665
      2.03333330	     -1.90510469	      2.67357880	     -8.65050149	     -0.06723013	      1.19450536	     -0.08325350	     -3.26047535	      0.09391053	      0.32380914	      0.00000000	      5.84192040	     -0.50933318	      0.00000000	     -3.17286121	      4.39815495	     -4.38446384	      0.04149908	      1.90914474	      0.91141430	      0.00000000	      0.36864428	     -0.87337463	     -2.67879303	      3.96564765	     -6.35841810	     10.64961853	     21.57903879	     68.40200778	     -2.25334874	    -10.17428113	     13.75066835	     26.15615840	     64.57665026
